<svg width="22" height="26" viewBox="0 0 22 26" fill="none" xmlns="http://www.w3.org/2000/svg">
<path d="M20.9701 10.6401L6.7032 19.4301C6.38367 19.626 5.97459 19.6072 5.67541 19.3759C4.31996 18.3321 3.109 17.2738 2.30102 16.3841C2.30102 16.3841 1.60497 15.6716 1.30376 15.2195C0.817343 14.6028 0.583293 13.7965 0.583293 13.0131C0.583293 12.1339 0.839732 11.3026 1.35057 10.638C1.46658 10.5193 1.90822 9.99631 2.32544 9.5692C4.75957 6.91074 11.1135 2.51885 14.4554 1.18753C14.9418 0.97294 16.2402 0.525001 16.9139 0.5C17.5631 0.5 18.19 0.641674 18.7924 0.952106C19.5332 1.37921 20.1133 2.04174 20.4389 2.8272C20.6485 3.37306 20.9721 5.01064 20.9721 5.05856C21.1818 6.22737 21.3385 7.86912 21.4158 9.78588C21.4301 10.1296 21.2571 10.463 20.9701 10.6401" fill="white"/>
<path opacity="0.4" d="M20.0159 15.3747C20.6448 14.9851 21.4365 15.4831 21.406 16.231C21.3307 17.9853 21.2004 19.5312 21.0417 20.6812C21.0173 20.7062 20.6937 22.7459 20.3212 23.4355C19.672 24.7169 18.3979 25.5002 17.0282 25.5002H16.9143C16.031 25.4773 14.1525 24.6939 14.1525 24.646C13.2061 24.2523 11.9707 23.5856 10.6417 22.7834C10.0434 22.4209 10.0291 21.5313 10.6275 21.1625L20.0159 15.3747Z" fill="white"/>
</svg>
