<svg width="4" height="12" viewBox="0 0 4 12" fill="none" xmlns="http://www.w3.org/2000/svg">
<path fill-rule="evenodd" clip-rule="evenodd" d="M0.803467 10.4789C0.803467 11.1399 1.34047 11.6769 1.99947 11.6769C2.65947 11.6769 3.19747 11.1399 3.19747 10.4789C3.19747 9.81791 2.65947 9.28091 1.99947 9.28091C1.34047 9.28091 0.803467 9.81791 0.803467 10.4789ZM0.803467 5.99981C0.803467 6.66081 1.34047 7.19781 1.99947 7.19781C2.65947 7.19781 3.19747 6.66081 3.19747 5.99981C3.19747 5.33881 2.65947 4.80181 1.99947 4.80181C1.34047 4.80181 0.803467 5.33881 0.803467 5.99981ZM1.99947 2.71841C1.34047 2.71841 0.803467 2.18141 0.803467 1.52041C0.803467 0.85941 1.34047 0.322411 1.99947 0.322411C2.65947 0.322411 3.19747 0.85941 3.19747 1.52041C3.19747 2.18141 2.65947 2.71841 1.99947 2.71841Z" fill="white"/>
</svg>
