<svg width="26" height="23" viewBox="0 0 26 23" fill="none" xmlns="http://www.w3.org/2000/svg">
<path opacity="0.4" d="M10.6041 16.9475H2.38471C1.34444 16.9475 0.5 17.7771 0.5 18.7992C0.5 19.8198 1.34444 20.6508 2.38471 20.6508H10.6041C11.6444 20.6508 12.4888 19.8198 12.4888 18.7992C12.4888 17.7771 11.6444 16.9475 10.6041 16.9475" fill="white"/>
<path opacity="0.4" d="M25.5 4.9731C25.5 3.95243 24.6556 3.1228 23.6167 3.1228H15.3973C14.357 3.1228 13.5126 3.95243 13.5126 4.9731C13.5126 5.99513 14.357 6.82476 15.3973 6.82476H23.6167C24.6556 6.82476 25.5 5.99513 25.5 4.9731" fill="white"/>
<path d="M9.09717 4.9732C9.09717 7.30654 7.17357 9.19777 4.79859 9.19777C2.42499 9.19777 0.5 7.30654 0.5 4.9732C0.5 2.64123 2.42499 0.75 4.79859 0.75C7.17357 0.75 9.09717 2.64123 9.09717 4.9732" fill="white"/>
<path d="M25.5 18.749C25.5 21.081 23.5764 22.9722 21.2014 22.9722C18.8278 22.9722 16.9028 21.081 16.9028 18.749C16.9028 16.4156 18.8278 14.5244 21.2014 14.5244C23.5764 14.5244 25.5 16.4156 25.5 18.749" fill="white"/>
</svg>
