<svg width="26" height="26" viewBox="0 0 26 26" fill="none" xmlns="http://www.w3.org/2000/svg">
<path opacity="0.4" d="M18.416 25.5H7.58273C3.34612 25.5 0.5 22.5286 0.5 18.1054V7.8959C0.5 3.47264 3.34612 0.5 7.58273 0.5H18.4173C22.6539 0.5 25.5 3.47264 25.5 7.8959V18.1054C25.5 22.5286 22.6539 25.5 18.416 25.5" fill="white"/>
<path fill-rule="evenodd" clip-rule="evenodd" d="M12.0562 8.84383C12.0562 10.5563 10.6625 11.9501 8.95 11.9501C7.23625 11.9501 5.84375 10.5563 5.84375 8.84383C5.84375 7.13133 7.23625 5.73633 8.95 5.73633C10.6625 5.73633 12.0562 7.13133 12.0562 8.84383ZM22.2505 15.6096C22.5417 15.8921 22.7505 16.2146 22.888 16.5583C23.3042 17.5983 23.088 18.8483 22.643 19.8783C22.1155 21.1046 21.1055 22.0308 19.833 22.4358C19.268 22.6171 18.6755 22.6946 18.0842 22.6946H7.608C6.5655 22.6946 5.643 22.4521 4.88675 21.9971C4.413 21.7121 4.32925 21.0558 4.6805 20.6283C5.268 19.9158 5.848 19.2008 6.433 18.4796C7.548 17.0996 8.29925 16.6996 9.13425 17.0508C9.473 17.1958 9.813 17.4146 10.163 17.6446C11.0955 18.2621 12.3917 19.1096 14.0992 18.1896C15.2664 17.5514 15.9439 16.4593 16.5336 15.5087L16.5455 15.4896C16.5852 15.426 16.6245 15.3624 16.6638 15.299C16.8643 14.975 17.0618 14.6558 17.2855 14.3621C17.563 13.9983 18.593 12.8608 19.9242 13.6708C20.773 14.1808 21.4867 14.8708 22.2505 15.6096Z" fill="white"/>
</svg>
