<svg width="26" height="24" viewBox="0 0 26 24" fill="none" xmlns="http://www.w3.org/2000/svg">
<path opacity="0.4" d="M14.2204 0.99065L17.0035 6.58349C17.2085 6.9887 17.5999 7.27009 18.0512 7.33263L24.3025 8.24309C24.6676 8.29436 24.9989 8.48696 25.2227 8.78086C25.444 9.07101 25.5391 9.4387 25.4853 9.80013C25.4415 10.1003 25.3003 10.3779 25.084 10.5905L20.5542 14.9815C20.2229 15.2879 20.0729 15.7419 20.1529 16.1859L21.2681 22.359C21.3869 23.1044 20.8931 23.8073 20.1529 23.9486C19.8478 23.9973 19.5353 23.9461 19.2602 23.806L13.684 20.9008C13.2702 20.6919 12.7813 20.6919 12.3675 20.9008L6.79128 23.806C6.10614 24.1699 5.2572 23.9223 4.87587 23.247C4.73459 22.9781 4.68458 22.6717 4.73084 22.3728L5.84608 16.1984C5.9261 15.7557 5.77481 15.2992 5.44474 14.9928L0.915021 10.6043C0.376155 10.084 0.359902 9.22734 0.878763 8.68831C0.890016 8.67706 0.902518 8.66455 0.915021 8.65205C1.13007 8.43318 1.41263 8.29436 1.71769 8.2581L7.96903 7.34638C8.41913 7.2826 8.81047 7.00371 9.01676 6.596L11.6998 0.99065C11.9386 0.510406 12.4337 0.211504 12.9714 0.224011H13.1389C13.6052 0.280289 14.0116 0.569186 14.2204 0.99065" fill="white"/>
<path d="M12.99 20.745C12.7479 20.7525 12.512 20.8176 12.2998 20.9339L6.7509 23.8326C6.07195 24.1566 5.25945 23.9051 4.87879 23.2558C4.73776 22.9906 4.68659 22.6866 4.73402 22.3889L5.8423 16.2276C5.91719 15.7797 5.76742 15.3243 5.44167 15.0091L0.909922 10.6217C0.372002 10.095 0.362018 9.23059 0.888704 8.6914C0.896193 8.68389 0.902433 8.67763 0.909922 8.67138C1.12459 8.45871 1.40166 8.31859 1.69995 8.2748L7.95654 7.35405C8.40959 7.2965 8.80273 7.01377 9.00242 6.60343L11.722 0.927531C11.9803 0.469655 12.4758 0.196932 13 0.225705C12.99 0.59726 12.99 20.4923 12.99 20.745" fill="white"/>
</svg>
