<svg width="26" height="26" viewBox="0 0 26 26" fill="none" xmlns="http://www.w3.org/2000/svg">
<path opacity="0.4" d="M18.4254 0.598389H7.58787C3.35037 0.598389 0.500366 3.57339 0.500366 7.99839V18.2109C0.500366 22.6234 3.35037 25.5984 7.58787 25.5984H18.4254C22.6629 25.5984 25.5004 22.6234 25.5004 18.2109V7.99839C25.5004 3.57339 22.6629 0.598389 18.4254 0.598389" fill="white"/>
<path d="M11.5167 17.1585C11.2367 17.1585 10.9567 17.0522 10.743 16.8385L7.77674 13.8722C7.34924 13.4447 7.34924 12.7522 7.77674 12.326C8.20424 11.8985 8.89549 11.8972 9.32299 12.3247L11.5167 14.5185L16.6767 9.35847C17.1042 8.93097 17.7955 8.93097 18.223 9.35847C18.6505 9.78597 18.6505 10.4785 18.223 10.906L12.2905 16.8385C12.0767 17.0522 11.7967 17.1585 11.5167 17.1585" fill="white"/>
</svg>
