<svg width="24" height="26" viewBox="0 0 24 26" fill="none" xmlns="http://www.w3.org/2000/svg">
<path d="M12.015 16.6362C10.0094 16.6362 8.38702 15.0737 8.38702 13.1112C8.38702 11.1487 10.0094 9.57373 12.015 9.57373C14.0206 9.57373 15.6046 11.1487 15.6046 13.1112C15.6046 15.0737 14.0206 16.6362 12.015 16.6362" fill="white"/>
<path opacity="0.4" d="M23.5375 16.0613C23.2948 15.6863 22.9499 15.3113 22.5028 15.0738C22.1451 14.8988 21.9152 14.6113 21.7108 14.2738C21.0593 13.1988 21.4425 11.7863 22.5284 11.1488C23.8058 10.4363 24.2146 8.84876 23.4737 7.61126L22.6178 6.13625C21.8896 4.89875 20.2928 4.46125 19.0282 5.18625C17.904 5.78625 16.4605 5.38625 15.809 4.32375C15.6046 3.97375 15.4896 3.59875 15.5152 3.22375C15.5535 2.73625 15.4002 2.27375 15.1703 1.89875C14.6976 1.12375 13.8417 0.598755 12.8964 0.598755H11.0952C10.1627 0.623755 9.30679 1.12375 8.83413 1.89875C8.59141 2.27375 8.4509 2.73625 8.47644 3.22375C8.50199 3.59875 8.38702 3.97375 8.18263 4.32375C7.53113 5.38625 6.08762 5.78625 4.97624 5.18625C3.69879 4.46125 2.11476 4.89875 1.37384 6.13625L0.517952 7.61126C-0.210193 8.84876 0.19859 10.4363 1.46326 11.1488C2.54909 11.7863 2.93233 13.1988 2.2936 14.2738C2.07644 14.6113 1.8465 14.8988 1.48881 15.0738C1.05448 15.3113 0.671245 15.6863 0.466854 16.0613C-0.00580157 16.8363 0.0197474 17.8113 0.492403 18.6238L1.37384 20.1238C1.8465 20.9238 2.72793 21.4238 3.6477 21.4238C4.08203 21.4238 4.59301 21.2988 5.00179 21.0488C5.32115 20.8363 5.70439 20.7613 6.12594 20.7613C7.39061 20.7613 8.4509 21.7988 8.47644 23.0363C8.47644 24.4738 9.6517 25.5988 11.1335 25.5988H12.8709C14.3399 25.5988 15.5152 24.4738 15.5152 23.0363C15.5535 21.7988 16.6138 20.7613 17.8785 20.7613C18.2872 20.7613 18.6705 20.8363 19.0026 21.0488C19.4114 21.2988 19.9096 21.4238 20.3567 21.4238C21.2637 21.4238 22.1451 20.9238 22.6178 20.1238L23.512 18.6238C23.9719 17.7863 24.0102 16.8363 23.5375 16.0613" fill="white"/>
</svg>
