<svg width="26" height="26" viewBox="0 0 26 26" fill="none" xmlns="http://www.w3.org/2000/svg">
<path opacity="0.4" d="M18.418 0.598389H7.58174C3.34549 0.598389 0.500488 3.57089 0.500488 7.99464V18.2034C0.500488 22.6259 3.34549 25.5984 7.58174 25.5984H18.4167C22.653 25.5984 25.5005 22.6259 25.5005 18.2034V7.99464C25.5005 3.57089 22.6542 0.598389 18.418 0.598389" fill="white"/>
<path fill-rule="evenodd" clip-rule="evenodd" d="M12.1427 12.1593H19.2677C19.7802 12.1593 20.2052 12.5843 20.2052 13.0968V15.4093C20.2052 15.9343 19.7802 16.3468 19.2677 16.3468C18.7427 16.3468 18.3302 15.9343 18.3302 15.4093V14.0343H16.6677V15.4093C16.6677 15.9343 16.2427 16.3468 15.7302 16.3468C15.2052 16.3468 14.7927 15.9343 14.7927 15.4093V14.0343H12.1427C11.7427 15.3718 10.5177 16.3468 9.05522 16.3468C7.25522 16.3468 5.79272 14.8968 5.79272 13.0968C5.79272 11.3093 7.25522 9.8468 9.05522 9.8468C10.5177 9.8468 11.7427 10.8218 12.1427 12.1593ZM7.66772 13.0968C7.66772 13.8593 8.29272 14.4718 9.05522 14.4718C9.80522 14.4718 10.4302 13.8593 10.4302 13.0968C10.4302 12.3343 9.80522 11.7218 9.05522 11.7218C8.29272 11.7218 7.66772 12.3343 7.66772 13.0968Z" fill="white"/>
</svg>
