<?xml version="1.0" encoding="UTF-8"?>
<!DOCTYPE svg PUBLIC "-//W3C//DTD SVG 1.1//EN" "http://www.w3.org/Graphics/SVG/1.1/DTD/svg11.dtd">
<!-- Creator: CorelDRAW -->
<svg xmlns="http://www.w3.org/2000/svg" xml:space="preserve" width="38.9466mm" height="16.5098mm" version="1.1" style="shape-rendering:geometricPrecision; text-rendering:geometricPrecision; image-rendering:optimizeQuality; fill-rule:evenodd; clip-rule:evenodd"
viewBox="0 0 3894.66 1650.98"
 xmlns:xlink="http://www.w3.org/1999/xlink"
 xmlns:xodm="http://www.corel.com/coreldraw/odm/2003">
 <defs>
  <style type="text/css">
   <![CDATA[
    .fil0 {fill:white;fill-rule:nonzero}
   ]]>
  </style>
 </defs>
 <g id="Слой_x0020_1">
  <metadata id="CorelCorpID_0Corel-Layer"/>
  <path id="s3" class="fil0" d="M456.25 1159.85c-122.45,0 -225.93,-41.63 -310.12,-124.59 -86.33,-84.19 -129.19,-186.75 -129.19,-307.67l0 -623.3c0,-22.04 7.96,-41.33 24.19,-57.55 15.61,-15.31 33.98,-23.27 55.71,-23.27 22.05,0 41.33,7.96 58.17,23.27 16.23,16.22 24.19,35.51 24.19,57.55l0 175.72 356.03 0c22.05,0 41.03,7.96 56.64,23.88 15.31,15.92 23.27,34.9 23.27,56.94 0,21.43 -7.66,39.5 -22.96,54.19 -15.31,14.69 -34.29,22.04 -56.95,22.04l-356.03 0 0 292.36c0,76.54 26.94,141.13 80.82,193.79 52.65,52.66 117.86,78.98 196.23,78.98 73.17,0 132.86,-21.73 179.4,-64.59 18.67,-18.06 38.57,-26.94 60.31,-26.94 17.75,0 34.59,6.73 50.2,20.51 14.39,14.39 21.43,32.14 21.43,52.96 0,26.33 -9.49,48.98 -28.77,68.27 -75.31,71.64 -169.6,107.45 -282.57,107.45zm803 0c-120.92,0 -223.18,-42.85 -306.75,-128.27 -40.72,-40.1 -72.25,-86.94 -94.29,-140.21 -22.04,-53.57 -33.06,-109.9 -33.06,-169.29 0,-120.01 42.24,-223.48 127.35,-310.12 83.57,-85.72 185.83,-128.27 306.75,-128.27 119.39,0 221.34,42.24 305.83,126.43 82.35,83.58 125.21,185.83 128.27,306.75l0 356.96c0,22.65 -7.96,41.94 -23.57,57.86 -15.31,15.92 -34.59,23.88 -57.25,23.88 -22.65,0 -41.33,-7.96 -55.71,-23.57 -14.39,-15.31 -21.43,-34.9 -21.43,-58.17l-0.92 -12.55c-78.99,65.82 -170.83,98.57 -275.22,98.57zm-195.62 -241.23c52.04,55.1 117.25,82.66 195.62,82.66 78.06,0 143.88,-27.56 197.15,-82.66 52.66,-53.88 78.99,-119.4 78.99,-196.54 0,-76.84 -26.33,-142.36 -78.99,-196.24 -54.49,-54.49 -120,-81.74 -197.15,-81.74 -77.15,0 -142.35,27.25 -195.62,81.74 -53.27,54.5 -79.9,119.7 -79.9,196.24 0,76.53 26.63,142.05 79.9,196.54zm873.41 541.86c-22.05,0 -41.03,-7.96 -56.95,-23.88 -15.61,-15.92 -23.57,-35.51 -23.57,-58.77l0 -655.75c0,-58.48 11.02,-114.5 33.68,-168.07 22.35,-53.58 54.18,-100.72 95.51,-142.05 40.41,-40.72 87.56,-72.25 141.13,-94.6 53.58,-22.65 109.6,-33.67 168.07,-33.67 58.78,0 114.8,11.02 168.38,33.67 53.57,22.35 100.41,53.88 141.13,94.6 84.8,86.64 127.35,190.11 127.35,310.12 0,59.39 -11.02,115.72 -33.06,169.29 -22.35,53.27 -53.58,100.11 -94.29,140.21 -40.72,40.72 -87.56,72.25 -141.13,94.6 -53.58,22.65 -109.6,33.67 -168.38,33.67 -106.23,0 -199.91,-33.67 -280.73,-101.33l0 319.31c0,23.26 -7.04,42.85 -21.43,58.77 -14.38,15.92 -32.75,23.88 -55.71,23.88zm159.8 -541.86c53.27,55.1 119.39,82.66 198.07,82.66 78.99,0 145.11,-27.56 198.38,-82.66 53.88,-53.88 80.51,-119.4 80.51,-196.54 0,-76.84 -26.63,-142.36 -80.51,-196.24 -54.49,-54.49 -120.62,-81.74 -198.38,-81.74 -77.76,0 -143.58,27.25 -198.07,81.74 -54.49,54.5 -81.74,119.7 -81.74,196.24 0,76.53 27.25,142.05 81.74,196.54z"/>
  <g>
  <path id="s2" class="fill" d="M3356.19 534.51c-52.34,0 -102.82,18.99 -142.13,53.45 -11.25,9.88 -12.37,26.99 -2.51,38.24 9.86,11.26 26.99,12.38 38.25,2.52 29.41,-25.8 67.19,-40 106.38,-40 89.07,0 161.52,72.44 161.52,161.5 0,37.35 -12.38,72.43 -35.84,101.44 -9.41,11.64 -7.6,28.71 4.04,38.11 5.02,4.05 11.04,6.04 17.02,6.04 7.9,0 15.74,-3.45 21.09,-10.07 30.89,-38.21 47.9,-86.34 47.9,-135.52 0,-118.95 -96.78,-215.71 -215.72,-215.71zm-288.85 537.16c-18.78,-17.4 -36.15,-35.64 -51.61,-54.21 -59.55,-71.52 -92.35,-166.43 -92.35,-267.24 0,-70.02 17.09,-139.52 49.41,-201.01 6.96,-13.25 1.86,-29.64 -11.38,-36.6 -13.24,-6.96 -29.63,-1.87 -36.6,11.38 -36.39,69.23 -55.64,147.46 -55.64,226.23 0,113.46 37.26,220.69 104.9,301.92 16.95,20.36 35.94,40.31 56.42,59.29 5.21,4.83 11.82,7.22 18.42,7.22 7.28,0 14.54,-2.92 19.88,-8.68 10.18,-10.98 9.53,-28.12 -1.45,-38.3zm625.94 -672.95c-91.1,-87.38 -210.82,-135.51 -337.09,-135.51 -145.86,0 -282.84,64.58 -375.79,177.19 -9.54,11.54 -7.9,28.63 3.65,38.16 11.54,9.53 28.63,7.9 38.14,-3.66 82.64,-100.09 204.38,-157.5 334,-157.5 232.21,0 422.14,181.57 432.4,413.35 0.63,14.55 12.63,25.91 27.05,25.91 0.4,0 0.82,-0.01 1.22,-0.03 14.95,-0.66 26.53,-13.32 25.87,-28.27 -5.56,-125.45 -58.62,-242.53 -149.45,-329.64zm118.81 418.21c-14.66,-3.02 -28.99,6.41 -32,21.08 -12.87,62.5 -40.13,122.5 -78.84,173.5 -9.05,11.92 -6.72,28.92 5.2,37.96 4.9,3.73 10.65,5.52 16.37,5.52 8.18,0 16.27,-3.69 21.59,-10.71 43.59,-57.41 74.28,-124.96 88.76,-195.35 3.03,-14.65 -6.42,-28.99 -21.08,-32zm-603.71 187.52c-39.13,-22.79 -72.99,-54.85 -97.95,-92.74 -8.24,-12.51 -25.04,-15.96 -37.53,-7.73 -12.51,8.22 -15.97,25.03 -7.73,37.53 29.53,44.85 69.62,82.81 115.93,109.77 4.3,2.5 8.99,3.69 13.62,3.69 9.33,0 18.41,-4.83 23.44,-13.47 7.53,-12.94 3.15,-29.53 -9.78,-37.05zm339.19 -545.24c-56.88,-37.44 -123.05,-57.25 -191.39,-57.25 -192.01,0 -348.22,156.23 -348.22,348.26 0,31.44 4.21,62.64 12.49,92.74 3.31,12.03 14.22,19.92 26.12,19.92 2.38,0 4.79,-0.32 7.21,-0.98 14.43,-3.98 22.91,-18.9 18.93,-33.32 -7,-25.42 -10.55,-51.78 -10.55,-78.36 0,-162.14 131.89,-294.06 294.02,-294.06 57.7,0 113.57,16.71 161.58,48.33 12.5,8.24 29.3,4.77 37.54,-7.73 8.24,-12.5 4.78,-29.31 -7.73,-37.55zm78.42 70.79c-9.47,-11.59 -26.54,-13.31 -38.13,-3.84 -11.6,9.47 -13.31,26.54 -3.84,38.13 42.69,52.28 66.22,118.3 66.22,185.93 0,77.7 -30.03,150.97 -84.54,206.33 -10.51,10.66 -10.38,27.82 0.28,38.32 5.29,5.2 12.15,7.79 19.02,7.79 7,0 14.01,-2.7 19.31,-8.08 64.56,-65.55 100.13,-152.34 100.13,-244.36 0,-80.08 -27.87,-158.28 -78.45,-220.22zm-390.84 327.12c-26.08,-29.52 -40.45,-67.48 -40.45,-106.9 0,-17.81 2.87,-35.28 8.52,-51.94 4.82,-14.16 -2.76,-29.56 -16.93,-34.38 -14.18,-4.8 -29.57,2.77 -34.39,16.93 -7.57,22.29 -11.41,45.63 -11.41,69.39 0,52.66 19.19,103.37 54.07,142.8 5.35,6.06 12.81,9.15 20.31,9.15 6.38,0 12.79,-2.24 17.93,-6.8 11.21,-9.91 12.27,-27.04 2.35,-38.25z"/>
<animate attributeName="fill" attributeType="XML"  
               begin="0;graphics.click"
               dur="1s" 
               repeatCount="indefinite"
               values="#4C5EFF;#2A308D;#4C5EFF"
               calcMode="linear" />
</g>
  <path id="s1" class="fil0" d="M3697.61 1091.42l-246.08 -51.61 0 -292.56c0,-52.56 -42.77,-95.34 -95.34,-95.34 -25.43,0 -49.36,9.9 -67.43,27.93 -17.98,18.02 -27.89,41.97 -27.89,67.41l0 571.19 -110.65 -110.66c-18,-18.01 -41.94,-27.92 -67.4,-27.92 -25.46,0 -49.4,9.91 -67.42,27.94 -17.99,18.02 -27.9,41.96 -27.9,67.41 0,25.47 9.92,49.41 27.92,67.4l250.45 250.46 23.49 45.04c4.68,8.95 13.93,14.56 24.03,14.56l461.99 0c14.43,0 26.35,-11.31 27.08,-25.72l18.99 -374.87c3.93,-77.21 -48.15,-144.78 -123.84,-160.66z">
<animate attributeName="d" fill="freeze" begin="0ms" dur="1000ms" keyTimes="0;0.5;1" repeatCount="indefinite" values = "
M3697.61 1091.42l-246.08 -51.61 0 -292.56c0,-52.56 -42.77,-95.34 -95.34,-95.34 -25.43,0 -49.36,9.9 -67.43,27.93 -17.98,18.02 -27.89,41.97 -27.89,67.41l0 571.19 -110.65 -110.66c-18,-18.01 -41.94,-27.92 -67.4,-27.92 -25.46,0 -49.4,9.91 -67.42,27.94 -17.99,18.02 -27.9,41.96 -27.9,67.41 0,25.47 9.92,49.41 27.92,67.4l250.45 250.46 23.49 45.04c4.68,8.95 13.93,14.56 24.03,14.56l461.99 0c14.43,0 26.35,-11.31 27.08,-25.72l18.99 -374.87c3.93,-77.21 -48.15,-144.78 -123.84,-160.66z;M3697.61 1091.42l-246.08 -51.61 0 -237.51c0,-52.57 -42.77,-95.35 -95.34,-95.35 -25.43,0 -49.36,9.9 -67.43,27.93 -17.98,18.03 -27.89,41.97 -27.89,67.42l0 516.14 -78 -123.67c-15.76,-20.01 -38.36,-32.67 -63.65,-35.67 -25.28,-3 -50.22,4.02 -70.24,19.8 -19.99,15.78 -23.37,27.7 -26.37,52.98 -3,25.29 4.03,50.23 19.79,70.22l223.47 290.97 23.49 45.04c4.68,8.95 13.93,14.56 24.03,14.56l461.99 0c14.43,0 26.35,-11.31 27.08,-25.72l18.99 -374.87c3.93,-77.21 -48.15,-144.78 -123.84,-160.66z;M3697.61 1091.42l-246.08 -51.61 0 -292.56c0,-52.56 -42.77,-95.34 -95.34,-95.34 -25.43,0 -49.36,9.9 -67.43,27.93 -17.98,18.02 -27.89,41.97 -27.89,67.41l0 571.19 -110.65 -110.66c-18,-18.01 -41.94,-27.92 -67.4,-27.92 -25.46,0 -49.4,9.91 -67.42,27.94 -17.99,18.02 -27.9,41.96 -27.9,67.41 0,25.47 9.92,49.41 27.92,67.4l250.45 250.46 23.49 45.04c4.68,8.95 13.93,14.56 24.03,14.56l461.99 0c14.43,0 26.35,-11.31 27.08,-25.72l18.99 -374.87c3.93,-77.21 -48.15,-144.78 -123.84,-160.66z;"></animate>
</path>

 </g>
</svg>

