<svg width="97" height="29" viewBox="0 0 97 29" fill="none" xmlns="http://www.w3.org/2000/svg">
<path d="M0.600006 7.4C0.600006 9.83 1.20001 9.8 3.30001 9.8H6.30001C8.67001 9.8 8.70001 9.83 8.70001 12.2C8.70001 15.17 6.30001 14.03 6.30001 17V24.2C6.30001 28.4 6.33001 29 9.90001 29C13.5 29 13.5 28.4 13.5 24.2V12.2C13.5 9.83 13.5 9.8 16.2 9.8C18.3 9.8 18.9 9.83 18.9 7.4C18.9 5.03 18.3 5 16.2 5H3.30001C1.20001 5 0.600006 5.03 0.600006 7.4Z" fill="white"/>
<path d="M21.3117 24.2C21.3117 28.67 21.3117 29 24.9117 29C28.2117 29 28.2117 28.67 28.2117 25.4V24.68C28.2117 21.47 28.2117 21.2 31.8117 21.2C35.4117 21.2 35.4117 21.47 35.4117 24.68V25.4C35.4117 28.67 35.4117 29 38.7117 29C42.3117 29 42.3117 28.67 42.3117 24.2V17.6C42.3117 14.6 39.9117 15.2 39.9117 12.2C39.9117 5.6 39.3117 5 32.7117 5H30.9117C24.3117 5 23.7117 5.6 23.7117 12.2C23.7117 15.2 21.3117 14.6 21.3117 17.6V24.2ZM28.2117 13.1C28.2117 9.5 28.2117 9.5 31.8117 9.5C35.4117 9.5 35.4117 9.5 35.4117 13.1C35.4117 16.7 35.4117 16.7 31.8117 16.7C28.2117 16.7 28.2117 16.7 28.2117 13.1Z" fill="white"/>
<path d="M46.5211 24.2C46.5211 29 46.5211 29 51.3211 29C56.1211 29 56.1211 29 56.1211 25.4C56.1211 21.8 56.1511 21.8 59.6611 21.8C63.8911 21.8 64.5211 21.2 64.5211 14.6V12.2C64.5211 5.6 63.9211 5 57.3211 5H51.3211C46.5211 5 46.5211 5.18 46.5211 9.8V24.2ZM51.3211 12.2C51.3211 10.1 51.6211 9.8 53.7211 9.8H56.1211C59.7211 9.8 59.7211 9.8 59.7211 13.4C59.7211 17 59.7211 17 56.1211 17H53.7211C51.6211 17 51.3211 16.7 51.3211 14.6V12.2Z" fill="white"/>
<path d="M79.9245 5.51491C79.9955 5.65944 80.0424 5.81422 80.0634 5.97335L80.4516 11.7453V11.7453L80.6443 14.6465C80.6463 14.9448 80.6931 15.2413 80.7832 15.5262C81.016 16.079 81.5759 16.4304 82.185 16.4059L91.4668 15.7988C91.8687 15.7922 92.2568 15.9425 92.5458 16.2167C92.7866 16.4452 92.942 16.7441 92.991 17.0656L93.0074 17.2608C92.6233 22.5794 88.7171 27.0155 83.4095 28.1607C78.102 29.3058 72.6593 26.8868 70.0366 22.2169C69.2804 20.8602 68.8082 19.369 68.6475 17.8308C68.5803 17.3754 68.5508 16.9155 68.5591 16.4555C68.5508 10.7533 72.6114 5.82363 78.2955 4.6352C78.9796 4.52868 79.6502 4.89084 79.9245 5.51491Z" fill="#4C5EFF"/>
<path opacity="0.4" d="M83.713 0.55882C90.0705 0.720561 95.4138 5.29219 96.4423 11.4498L96.4325 11.4952V11.4952L96.4044 11.5613L96.4083 11.7427C96.3938 11.983 96.301 12.2142 96.1411 12.401C95.9746 12.5955 95.747 12.728 95.4965 12.7794L95.3437 12.8003L84.6349 13.4942C84.2787 13.5293 83.924 13.4145 83.6591 13.1782C83.4383 12.9813 83.2972 12.7155 83.2574 12.4291L82.5386 1.73589C82.5261 1.69973 82.5261 1.66054 82.5386 1.62438C82.5484 1.32962 82.6781 1.05101 82.8988 0.850787C83.1195 0.650562 83.4127 0.545408 83.713 0.55882Z" fill="#4C5EFF"/>
</svg>
