<svg width="26" height="26" viewBox="0 0 26 26" fill="none" xmlns="http://www.w3.org/2000/svg">
<path opacity="0.4" d="M25.4999 12.9998C25.4999 19.9035 19.9036 25.4998 12.9999 25.4998C6.09613 25.4998 0.499878 19.9035 0.499878 12.9998C0.499878 6.09726 6.09613 0.499756 12.9999 0.499756C19.9036 0.499756 25.4999 6.09726 25.4999 12.9998" fill="white"/>
<path d="M17.8248 8.88101L15.7998 15.281C15.7248 15.5435 15.5123 15.756 15.2498 15.8323L8.87477 17.831C8.44977 17.9698 8.03727 17.556 8.17477 17.131L10.1748 10.7185C10.2498 10.456 10.4623 10.256 10.7248 10.1685L17.1248 8.16851C17.5623 8.03101 17.9623 8.44351 17.8248 8.88101" fill="white"/>
</svg>
