<svg width="22" height="26" viewBox="0 0 22 26" fill="none" xmlns="http://www.w3.org/2000/svg">
<path opacity="0.4" d="M11.1082 25.5C10.9534 25.5 10.7986 25.4645 10.6589 25.3921L6.15755 23.062C4.88025 22.4001 3.88107 21.6573 3.10085 20.7919C1.39317 18.8994 0.443063 16.47 0.427962 13.9499L0.375109 5.65533C0.368817 4.69803 0.986701 3.83879 1.91038 3.51519L10.1757 0.633485C10.6665 0.458205 11.2139 0.455753 11.7135 0.624905L20.0102 3.40855C20.939 3.71866 21.5669 4.57178 21.5719 5.52785L21.6248 13.8285C21.6412 16.345 20.7238 18.7842 19.0425 20.6976C18.2711 21.5752 17.2807 22.329 16.016 23.0032L11.5549 25.386C11.4165 25.4608 11.263 25.4988 11.1082 25.5" fill="white"/>
<path d="M10.149 15.9011C9.9074 15.9024 9.66579 15.8153 9.47954 15.6364L7.08351 13.332C6.71353 12.9741 6.70976 12.3931 7.07596 12.0327C7.44216 11.6711 8.03991 11.6674 8.41114 12.0241L10.1352 13.6813L14.3446 9.53099C14.7121 9.1694 15.3098 9.16572 15.6798 9.52241C16.051 9.88032 16.0548 10.4625 15.6886 10.8217L10.8147 15.6278C10.631 15.8092 10.3906 15.8999 10.149 15.9011" fill="white"/>
</svg>
